<?xml version="1.0" encoding="UTF-8"?>
<svg width="100pt" height="100pt" version="1.1" viewBox="0 0 100 100" xmlns="http://www.w3.org/2000/svg">
  <g>
    <path
      d="m15.625 68.828v15.547h14.062c-0.003906-3.8711-1.4453-7.6055-4.043-10.477-2.5977-2.8711-6.168-4.6797-10.02-5.0703zm6.25 10.859c0 0.86328-0.69922 1.5625-1.5625 1.5625s-1.5625-0.69922-1.5625-1.5625v-4.6875c0-0.86328 0.69922-1.5625 1.5625-1.5625s1.5625 0.69922 1.5625 1.5625z"/>
    <path d="m25 15.625h7.8125v6.25h-7.8125z"/>
    <path d="m15.625 15.625h6.25v6.25h-6.25z"/>
    <path fill="#4caf50"
          d="m37.5 39.062c0 4.3164-3.4961 7.8125-7.8125 7.8125s-7.8125-3.4961-7.8125-7.8125 3.4961-7.8125 7.8125-7.8125 7.8125 3.4961 7.8125 7.8125"/>
    <path
      d="m51.562 75c-4.6133 0-7.8438 1.1367-9.6094 3.3789-1.2344 1.7383-1.7852 3.875-1.543 5.9961h43.965v-4.6875c-0.003906-4.5586-1.8164-8.9258-5.0391-12.148-3.2227-3.2227-7.5898-5.0352-12.148-5.0391h-1.3359c0.25 2.8125-0.53125 5.6211-2.2031 7.9023-2.3828 3.0508-6.4492 4.5977-12.086 4.5977zm19.062-7.7812c3.1367 0.625 9.0625 4.0391 9.0625 12.469 0 0.86328-0.69922 1.5625-1.5625 1.5625s-1.5625-0.69922-1.5625-1.5625c0-8-6.2891-9.3516-6.5625-9.4062-0.41797-0.070312-0.78906-0.30469-1.0312-0.65234s-0.33203-0.78125-0.24609-1.1953c0.082032-0.41797 0.33203-0.78125 0.6875-1.0078 0.35547-0.23047 0.78906-0.30469 1.2031-0.20703z"/>
    <path
      d="m53.281 56.25h-7.9688c-0.86328 0-1.5625-0.69922-1.5625-1.5625v-25c0-0.86328 0.69922-1.5625 1.5625-1.5625h7.8125v-3.125h-37.5v40.703c4.6836 0.39453 9.0469 2.5352 12.23 5.9922 3.1797 3.457 4.9492 7.9805 4.957 12.68h4.4648c-0.25391-2.8125 0.52734-5.625 2.1992-7.9023 2.3828-3.0508 6.4492-4.5977 12.086-4.5977 4.6133 0 7.8438-1.1367 9.6094-3.3789 1.2383-1.7383 1.7852-3.875 1.5391-5.9961h-1.7734c-3.7109-0.003906-6.9102-2.6133-7.6562-6.25zm-23.594-6.25c-4.4219 0-8.4102-2.6641-10.105-6.75-1.6914-4.0898-0.75781-8.793 2.3711-11.922s7.832-4.0625 11.922-2.3711c4.0859 1.6953 6.75 5.6836 6.75 10.105-0.007812 6.0391-4.8984 10.93-10.938 10.938z"/>
    <path
      d="m51.562 34.375h1.5625v-3.125h-6.25v21.875h6.25v-3.125h-1.5625c-0.86328 0-1.5625-0.69922-1.5625-1.5625s0.69922-1.5625 1.5625-1.5625h1.5625v-3.125h-1.5625c-0.86328 0-1.5625-0.69922-1.5625-1.5625s0.69922-1.5625 1.5625-1.5625h1.5625v-3.125h-1.5625c-0.86328 0-1.5625-0.69922-1.5625-1.5625s0.69922-1.5625 1.5625-1.5625z"/>
    <path
      d="m12.5 12.5h43.75c0.41406 0 0.8125-0.16406 1.1055-0.45703s0.45703-0.69141 0.45703-1.1055v-3.125c0-0.41406-0.16406-0.8125-0.45703-1.1055s-0.69141-0.45703-1.1055-0.45703h-31.25v1.5625c0 0.86328-0.69922 1.5625-1.5625 1.5625s-1.5625-0.69922-1.5625-1.5625v-1.5625h-4.6875v1.5625c0 0.86328-0.69922 1.5625-1.5625 1.5625s-1.5625-0.69922-1.5625-1.5625v-1.5625h-1.5625c-0.86328 0-1.5625 0.69922-1.5625 1.5625v3.125c0 0.41406 0.16406 0.8125 0.45703 1.1055s0.69141 0.45703 1.1055 0.45703z"/>
    <path
      d="m10.938 87.5v6.25h14.062v-1.5625c0-0.86328 0.69922-1.5625 1.5625-1.5625h12.5c0.22266 0 0.44531 0.046875 0.64844 0.14062l6.5625 2.9844h41.227v-6.25z"/>
    <path d="m46.875 15.625h6.25v6.25h-6.25z"/>
    <path d="m35.938 15.625h7.8125v6.25h-7.8125z"/>
  </g>
</svg>
